<svg width="304" height="86" viewBox="0 0 304 86" fill="none" xmlns="http://www.w3.org/2000/svg">
<path d="M16.6875 9.125C14.6875 7.625 13.6875 6.0625 13.6875 4.4375C13.6875 2.77083 14.1042 1.70833 14.9375 1.25C16.5208 0.416667 19 0 22.375 0C25.7917 0 29.0625 0.895833 32.1875 2.6875C35.3542 4.4375 38.125 6.77083 40.5 9.6875C41.0833 10.4375 45.7708 18.8958 54.5625 35.0625C63.3958 51.2292 68.0417 59.3125 68.5 59.3125L69.25 58.1875C69.625 57.2708 70.8125 51.125 72.8125 39.75C74.8125 28.3333 75.8125 19.6875 75.8125 13.8125C75.8125 12.3958 75.375 10.9583 74.5 9.5L73.0625 7.9375C71.8958 6.5625 71.3125 5.625 71.3125 5.125C71.3125 3.41667 72.1458 2.14583 73.8125 1.3125C75.4792 0.4375 79.3958 0 85.5625 0H91.4375C94.8542 0 96.5625 0.791667 96.5625 2.375C96.5625 3.95833 95.5 5.6875 93.375 7.5625C89.5 10.9792 87.3333 13.25 86.875 14.375C86.4583 15.4583 84.2083 27.6667 80.125 51C76.0833 74.2917 73.3958 85.9375 72.0625 85.9375C68.3125 85.9375 64.8125 83.6458 61.5625 79.0625C60.3125 77.3125 54.875 67.4792 45.25 49.5625C35.625 31.6458 30.5833 22.6875 30.125 22.6875C29.25 22.6875 28.6875 23.0833 28.4375 23.875C28.1875 24.625 26.875 31.6875 24.5 45.0625C22.1667 58.3958 21 67.1667 21 71.375C21 73.125 21.875 75.0833 23.625 77.25C25.375 79.375 26.25 80.9375 26.25 81.9375C26.25 83.3542 24.9167 84.3125 22.25 84.8125C21.5833 84.9375 17.7083 85 10.625 85C3.54167 85 0 84.2292 0 82.6875C0 80.3542 0.958333 78.5208 2.875 77.1875C7.16667 74.1875 9.54167 72.0625 10 70.8125C10.5 69.5625 12.2292 60.4583 15.1875 43.5C18.1875 26.5417 19.6875 16.9583 19.6875 14.75C19.6875 12.5 18.6875 10.625 16.6875 9.125ZM186 85H178.812C170.354 85 166.125 84.2292 166.125 82.6875C166.125 81.5625 166.875 80.1042 168.375 78.3125L172.25 73.5625C174 70.7708 175.271 67.4375 176.062 63.5625C176.854 59.6458 177.917 52.5833 179.25 42.375C180.625 32.125 181.312 26.4583 181.312 25.375L181.125 23.75L179 25.6875L177.25 28.375C175.583 30.9583 173.729 33.9792 171.688 37.4375L166.062 46.875C155.479 64.5 149.771 73.875 148.938 75C146.771 77.875 144.292 79.3125 141.5 79.3125C140.292 79.3125 139.042 77.9792 137.75 75.3125L136.688 72.0625L135.75 68.625C135.25 66.7083 134.625 64.4167 133.875 61.75L132 54.75C126.917 35.7083 123.458 26.1875 121.625 26.1875L120.812 28.5C120.521 29.5833 119.354 35.125 117.312 45.125C115.271 55.0833 114.25 62.1458 114.25 66.3125C114.25 70.4375 114.5 73.2292 115 74.6875C116.25 78.3542 116.875 80.5208 116.875 81.1875L116.5 82.875C115.375 84.2917 112.354 85 107.438 85C102.521 85 98.9792 84.7917 96.8125 84.375C94.6458 83.9167 93.5625 82.8542 93.5625 81.1875C93.5625 80.3125 94.9583 78.4375 97.75 75.5625C100.542 72.6875 102.333 69.9583 103.125 67.375C103.917 64.75 105.708 56.1875 108.5 41.6875C111.292 27.1458 112.688 19.0833 112.688 17.5C112.688 15.875 112.354 14.0208 111.688 11.9375L110.812 9.375L108.812 4.625C108.812 3.29167 109.229 2.375 110.062 1.875C111.979 0.75 113.604 0.1875 114.938 0.1875H118.5C122.042 0.1875 125.229 0.916667 128.062 2.375C130.896 3.79167 133.125 5.70833 134.75 8.125C135.25 8.875 137.542 16.6667 141.625 31.5L147.312 53.0625L148.5 55.625C149.958 55.625 155.188 48.0208 164.188 32.8125C173.229 17.5625 178.646 8.97917 180.438 7.0625C184.688 2.5625 189.604 0.3125 195.188 0.3125C200.812 0.3125 204.292 1 205.625 2.375L206.25 3.875C206.25 4.54167 205.188 5.58333 203.062 7C200.979 8.375 199.583 10.125 198.875 12.25C197.625 16.125 195.917 26.125 193.75 42.25C191.583 58.3333 190.5 67.125 190.5 68.625C190.5 70.125 190.917 72.2083 191.75 74.875L192.688 77.375L193.938 79.125L195.125 80.5C195.125 83.5 192.083 85 186 85ZM240.75 36.375C241.708 36.8333 246.875 37.0625 256.25 37.0625C265.625 37.0625 270.75 36.6667 271.625 35.875C272.5 35.0417 273.521 33.0417 274.688 29.875C275.896 26.7083 276.5 23.125 276.5 19.125C276.5 15.0833 276.271 12.5417 275.812 11.5C275.396 10.4167 274.583 8.9375 273.375 7.0625C272.208 5.14583 271.625 3.91667 271.625 3.375L272.062 2.25C273.479 0.833333 275.667 0.125 278.625 0.125L298.688 0.0625C301.688 0.0625 303.188 0.5625 303.188 1.5625C303.188 3.60417 301.917 5.52083 299.375 7.3125C295.458 10.1042 293.229 12.375 292.688 14.125L292.062 17.0625C291.812 18.3125 291.479 20.1875 291.062 22.6875C290.646 25.1458 290.104 28.1458 289.438 31.6875L288.438 37.5C288.188 38.9167 287.188 44.4792 285.438 54.1875C283.729 63.8542 282.875 69.7708 282.875 71.9375C282.875 74.0625 283.312 75.5208 284.188 76.3125L286.312 77.3125C288.688 78.6458 289.875 79.625 289.875 80.25C289.875 83.5 288.583 85.125 286 85.125L276.938 84.9375L268.312 85C261.604 85 258.25 84.1042 258.25 82.3125C258.25 80.8958 259.479 79.0417 261.938 76.75C264.438 74.4167 266.25 71.7292 267.375 68.6875C269.583 62.6458 270.688 57.0208 270.688 51.8125C270.688 48.8958 270.042 47.1458 268.75 46.5625C267.5 45.9792 262.229 45.6875 252.938 45.6875C243.646 45.6875 238.521 46.1042 237.562 46.9375C236.646 47.7292 235.833 49.0833 235.125 51C233.167 56.25 232.188 61.9792 232.188 68.1875C232.188 70.8542 232.625 73.0833 233.5 74.875L234.5 76.5625L235.812 78.3125C236.729 79.7292 237.188 80.9167 237.188 81.875C237.188 83.125 235.604 84.0625 232.438 84.6875C231.354 84.8958 226.521 85 217.938 85C209.396 85 205.125 84.4583 205.125 83.375C205.125 81.0417 206.646 79.1458 209.688 77.6875C212.771 76.2292 214.688 74.6458 215.438 72.9375L216.188 70.3125C216.562 68.7708 217.292 64.8958 218.375 58.6875L220.375 47.0625C224.083 26.9792 225.938 15.4583 225.938 12.5C225.938 11.2917 225.146 10.1667 223.562 9.125C220.479 7.125 218.938 5.52083 218.938 4.3125C218.938 1.47917 220.417 0.0625 223.375 0.0625L226.5 0.125L235.312 0.1875C245.646 0.1875 250.812 1.125 250.812 3C250.812 4.25 249.625 5.83333 247.25 7.75C244.917 9.625 243.229 11.7708 242.188 14.1875C239.729 19.9375 238.5 25.5208 238.5 30.9375C238.5 33.8542 239.25 35.6667 240.75 36.375Z" fill="#6366F1" fill-opacity="0.1"/>
</svg>
