<svg width="289" height="88" viewBox="0 0 289 88" fill="none" xmlns="http://www.w3.org/2000/svg">
<path d="M63.7685 87.456C58.7338 79.4347 53.9125 71.968 49.3045 65.056C44.7818 58.0587 40.7285 51.9573 37.1445 46.752C33.6458 41.4613 30.8725 37.3227 28.8245 34.336C26.7765 31.3493 25.7525 29.856 25.7525 29.856H24.6005L24.4725 70.176C24.4725 72.3093 24.7712 73.8027 25.3685 74.656C26.0512 75.5093 27.2032 75.936 28.8245 75.936C29.3365 75.936 30.0192 75.936 30.8725 75.936C31.8112 75.8507 32.6218 75.808 33.3045 75.808C34.0725 75.7227 34.4565 75.68 34.4565 75.68L35.0965 76.448L33.8165 84.512C33.8165 84.512 33.2192 84.4693 32.0245 84.384C30.8298 84.384 29.3365 84.3413 27.5445 84.256C25.8378 84.1707 24.0458 84.0853 22.1685 84C20.3765 84 18.7978 84 17.4325 84C15.2138 84 12.9098 84.0853 10.5205 84.256C8.13117 84.4267 6.12583 84.5973 4.5045 84.768C2.88317 84.9387 2.0725 85.024 2.0725 85.024L2.9685 76.576C5.5285 76.2347 7.40583 75.4667 8.6005 74.272C9.8805 73.0773 10.5632 71.1573 10.6485 68.512L12.1845 17.696C12.1845 14.88 11.4592 12.96 10.0085 11.936C8.64317 10.8267 5.9125 10.0587 1.8165 9.632L0.9205 8.48L1.8165 1.184C1.8165 1.184 2.5845 1.22666 4.1205 1.312C5.6565 1.39733 7.5765 1.52533 9.8805 1.696C12.1845 1.78133 14.3605 1.824 16.4085 1.824C18.2005 1.824 20.0352 1.78133 21.9125 1.696C23.7898 1.61066 25.3258 1.52533 26.5205 1.43999C27.8005 1.35466 28.4405 1.312 28.4405 1.312C31.8538 6.85866 35.2245 12.2347 38.5525 17.44C41.8805 22.6453 44.9952 27.5093 47.8965 32.032C50.8832 36.4693 53.5285 40.3947 55.8325 43.808C58.1365 47.136 59.9285 49.7813 61.2085 51.744C62.4885 53.6213 63.1285 54.56 63.1285 54.56H64.4085L64.1525 15.52C64.0672 13.5573 63.6832 12.1493 63.0005 11.296C62.4032 10.4427 61.3792 10.016 59.9285 10.016C59.0752 10.016 58.1792 10.0587 57.2405 10.144C56.3872 10.144 55.7898 10.144 55.4485 10.144L55.0645 9.24799L55.9605 1.312C55.9605 1.312 56.5152 1.35466 57.6245 1.43999C58.8192 1.43999 60.2698 1.48266 61.9765 1.56799C63.6832 1.65333 65.4325 1.73867 67.2245 1.824C69.1018 1.824 70.7658 1.824 72.2165 1.824C74.2645 1.824 76.4405 1.78133 78.7445 1.696C81.1338 1.61066 83.1392 1.52533 84.7605 1.43999C86.3818 1.26933 87.1925 1.184 87.1925 1.184L86.5525 9.632C83.7365 9.97333 81.6885 10.784 80.4085 12.064C79.1285 13.2587 78.4458 15.136 78.3605 17.696L76.6965 85.792L63.7685 87.456ZM136.926 86.048C134.366 77.7707 131.848 69.92 129.374 62.496C126.899 54.9867 124.595 48.16 122.462 42.016C120.328 35.7867 118.494 30.496 116.958 26.144H115.934C115.934 26.912 115.848 28.4907 115.678 30.88C115.507 33.2693 115.294 36.0853 115.038 39.328C114.867 42.5707 114.654 45.984 114.398 49.568C114.142 53.0667 113.886 56.4373 113.63 59.68C113.459 62.8373 113.288 65.5253 113.118 67.744C113.032 69.9627 112.99 71.328 112.99 71.84C112.99 74.5707 114.355 75.936 117.086 75.936C117.598 75.936 118.408 75.936 119.518 75.936C120.627 75.8507 121.267 75.808 121.438 75.808L122.206 76.448L120.798 84.512C119.944 84.512 118.536 84.4693 116.574 84.384C114.696 84.2987 112.734 84.2133 110.686 84.128C108.723 84.0427 107.102 84 105.822 84C104.798 84 103.56 84.0427 102.11 84.128C100.659 84.2133 99.2508 84.3413 97.8855 84.512C96.5202 84.6827 95.3682 84.8107 94.4295 84.896C93.5762 84.9813 93.1495 85.024 93.1495 85.024L93.9175 76.704C96.4775 76.448 98.2695 75.68 99.2935 74.4C100.403 73.0347 101.214 70.7307 101.726 67.488C101.896 66.5493 102.11 64.7147 102.366 61.984C102.622 59.2533 102.92 56.0107 103.262 52.256C103.688 48.5013 104.072 44.6613 104.414 40.736C104.84 36.7253 105.224 32.928 105.566 29.344C105.992 25.76 106.291 22.7733 106.462 20.384C106.718 17.9093 106.846 16.416 106.846 15.904C106.846 14.2827 106.547 13.088 105.95 12.32C105.438 11.4667 104.456 10.8267 103.006 10.4C101.64 9.888 99.6775 9.54666 97.1175 9.376L96.4775 8.60799L97.6295 1.184C99.0802 1.26933 100.83 1.35466 102.878 1.43999C104.926 1.52533 106.931 1.61066 108.894 1.696C110.856 1.78133 112.435 1.824 113.63 1.824C115.08 1.824 116.659 1.824 118.366 1.824C120.158 1.73867 121.864 1.65333 123.486 1.56799C125.107 1.48266 126.344 1.39733 127.198 1.312C128.99 7.79733 130.782 13.984 132.574 19.872C134.366 25.6747 135.987 30.9653 137.438 35.744C138.974 40.5227 140.254 44.576 141.278 47.904C142.387 51.232 143.155 53.5787 143.582 54.944H144.606C145.032 53.664 145.758 51.36 146.782 48.032C147.891 44.704 149.214 40.6507 150.75 35.872C152.371 31.0933 154.12 25.8027 155.998 20C157.875 14.1973 159.795 8.096 161.757 1.696C162.952 1.696 164.403 1.73867 166.11 1.824C167.902 1.90933 169.736 1.952 171.614 1.952C173.491 1.952 175.24 1.90933 176.862 1.824C178.227 1.824 179.848 1.78133 181.726 1.696C183.688 1.52533 185.438 1.39733 186.974 1.312C188.51 1.14133 189.491 1.056 189.918 1.056L190.43 1.56799L189.662 9.24799C186.078 9.504 183.603 10.144 182.238 11.168C180.872 12.1067 180.19 13.728 180.19 16.032C180.19 17.1413 180.232 19.0187 180.318 21.664C180.488 24.3093 180.659 27.424 180.83 31.008C181.086 34.5067 181.342 38.2613 181.598 42.272C181.939 46.1973 182.238 50.08 182.494 53.92C182.75 57.6747 183.006 61.088 183.262 64.16C183.859 68.8533 184.542 72.0107 185.31 73.632C186.078 75.168 187.486 75.936 189.534 75.936C190.216 75.936 190.942 75.8933 191.71 75.808C192.478 75.7227 192.947 75.68 193.118 75.68L193.63 76.32L192.478 84.384C191.966 84.384 190.942 84.3413 189.406 84.256C187.955 84.1707 186.291 84.0853 184.414 84C182.622 84 181 84 179.55 84C178.099 84 176.392 84.0427 174.43 84.128C172.467 84.2133 170.504 84.3413 168.542 84.512C166.579 84.6827 164.915 84.8107 163.55 84.896C162.184 84.9813 161.459 85.024 161.374 85.024L162.27 76.704C164.83 76.3627 166.664 75.7227 167.774 74.784C168.883 73.76 169.438 72.2667 169.438 70.304C169.438 69.6213 169.352 68.2987 169.182 66.336C169.096 64.3733 168.926 61.984 168.67 59.168C168.499 56.352 168.328 53.3227 168.158 50.08C167.987 46.8373 167.774 43.68 167.518 40.608C167.347 37.536 167.176 34.72 167.006 32.16C166.835 29.6 166.75 27.5947 166.75 26.144H165.598C164.403 29.3867 163.08 33.1413 161.63 37.408C160.179 41.6747 158.558 46.368 156.766 51.488C154.974 56.608 153.139 61.984 151.262 67.616C149.384 73.248 147.507 79.008 145.63 84.896L136.926 86.048ZM202.055 85.152L202.951 76.96C206.62 76.2773 209.052 75.2107 210.247 73.76C211.527 72.3093 212.167 69.792 212.167 66.208V16.672C212.167 14.0267 211.868 12.2773 211.271 11.424C210.673 10.4853 209.436 10.016 207.559 10.016C207.047 10.016 206.407 10.0587 205.639 10.144C204.871 10.144 204.231 10.144 203.719 10.144L203.079 9.12L203.975 1.696C206.108 1.696 208.711 1.73867 211.783 1.824C214.855 1.824 217.329 1.824 219.207 1.824C220.999 1.824 223.601 1.73866 227.015 1.56799C230.428 1.39733 234.183 1.184 238.279 0.927994L237.511 9.376C235.377 9.71733 233.756 10.144 232.647 10.656C231.623 11.168 230.94 12.064 230.599 13.344C230.257 14.5387 230.001 16.288 229.831 18.592L229.062 37.024L245.831 37.28C248.476 37.28 250.908 37.2373 253.127 37.152C255.345 36.9813 257.991 36.7253 261.062 36.384V16.672C261.062 14.0267 260.764 12.2773 260.167 11.424C259.569 10.4853 258.332 10.016 256.455 10.016C255.943 10.016 255.303 10.0587 254.535 10.144C253.767 10.144 253.084 10.144 252.487 10.144L251.847 9.12L252.871 1.696C253.724 1.696 255.132 1.73867 257.095 1.824C259.143 1.824 261.276 1.824 263.495 1.824C265.713 1.824 267.548 1.824 268.999 1.824C270.705 1.824 273.18 1.73866 276.423 1.56799C279.751 1.39733 283.463 1.184 287.559 0.927994L286.919 9.24799C283.761 9.67466 281.671 10.3573 280.647 11.296C279.708 12.2347 279.153 13.8987 278.983 16.288C278.727 20.128 278.513 24.3093 278.343 28.832C278.172 33.2693 278.001 37.792 277.831 42.4C277.66 46.9227 277.532 51.2747 277.447 55.456C277.447 59.6373 277.447 63.3493 277.447 66.592C277.447 70.176 277.788 72.608 278.471 73.888C279.239 75.168 280.647 75.808 282.695 75.808C283.548 75.808 284.444 75.7653 285.383 75.68C286.321 75.5947 287.047 75.5093 287.559 75.424L288.071 76.32L286.919 84.384C284.529 84.2987 281.5 84.2133 277.831 84.128C274.247 84.0427 271.132 84 268.487 84C267.292 84 265.628 84 263.495 84C261.361 84.0853 259.143 84.128 256.839 84.128C254.62 84.128 252.615 84.1707 250.823 84.256L251.847 76.064C254.321 75.9787 256.199 75.5947 257.479 74.912C258.759 74.2293 259.655 73.0347 260.167 71.328C260.764 69.6213 261.062 67.232 261.062 64.16V47.648C259.697 47.648 258.119 47.648 256.327 47.648C254.62 47.5627 252.913 47.52 251.207 47.52C249.5 47.52 248.092 47.52 246.983 47.52C246.215 47.52 244.849 47.5627 242.887 47.648C241.009 47.7333 238.791 47.904 236.231 48.16C233.756 48.3307 231.281 48.544 228.807 48.8L228.423 67.104C228.423 70.6027 228.764 72.9493 229.447 74.144C230.129 75.3387 231.452 75.936 233.415 75.936C234.183 75.936 234.993 75.8933 235.847 75.808C236.785 75.7227 237.553 75.6373 238.151 75.552L238.791 76.32L237.639 84.384C236.615 84.2987 235.121 84.2133 233.159 84.128C231.196 84.128 229.191 84.0853 227.143 84C225.18 84 223.559 84 222.279 84C220.231 84 217.884 84.0427 215.239 84.128C212.593 84.2987 210.076 84.4267 207.687 84.512C205.297 84.6827 203.42 84.896 202.055 85.152Z" fill="#FED631"/>
</svg>
