<svg width="281" height="167" viewBox="0 0 281 167" fill="none" xmlns="http://www.w3.org/2000/svg">
<path d="M75.584 0.679993V81.96C75.584 86.6533 73.2373 89 68.544 89H57.792C55.6587 89 54.0373 88.5307 52.928 87.592C51.8187 86.568 50.7947 85.0747 49.856 83.112L25.408 36.776C24.384 34.8133 23.36 32.6373 22.336 30.248C21.3973 27.8587 20.5867 25.5547 19.904 23.336H18.496C18.752 25.64 18.9653 27.9867 19.136 30.376C19.3067 32.68 19.392 34.984 19.392 37.288V89H0.832001V7.71999C0.832001 3.02666 3.22133 0.679993 8 0.679993H18.624C20.672 0.679993 22.208 1.19199 23.232 2.216C24.3413 3.15466 25.408 4.60533 26.432 6.56799L50.112 51.496C51.136 53.4587 52.2027 55.6347 53.312 58.024C54.4213 60.4133 55.488 62.888 56.512 65.448H58.048C57.792 62.888 57.5787 60.4133 57.408 58.024C57.3227 55.5493 57.28 53.1173 57.28 50.728L57.152 0.679993H75.584ZM183.703 0.679993C188.311 0.679993 190.7 3.06933 190.871 7.848L194.199 89H176.151L173.207 15.784H170.903L156.695 70.824C155.927 74.92 153.367 76.968 149.015 76.968H136.727C132.375 76.968 129.73 74.92 128.791 70.824L114.583 15.784H112.407L109.719 89H91.543L94.871 7.848C95.0417 3.06933 97.4737 0.679993 102.167 0.679993H120.471C124.652 0.679993 127.212 2.77066 128.151 6.952L139.543 51.368C140.055 53.416 140.482 55.5067 140.823 57.64C141.164 59.688 141.548 61.7787 141.975 63.912H143.639C144.066 61.7787 144.45 59.688 144.791 57.64C145.218 55.5067 145.644 53.3733 146.071 51.24L157.335 6.952C158.188 2.77066 160.748 0.679993 165.015 0.679993H183.703ZM230.044 0.679993V89H210.46V0.679993H230.044ZM262.812 34.6V49.32H229.02V34.6H262.812ZM280.988 0.679993V89H261.404V0.679993H280.988Z" fill="#131557"/>
<path d="M93.372 133.552C94.908 133.552 96.572 133.616 98.364 133.744C100.156 133.829 101.905 133.957 103.612 134.128C105.319 134.299 106.833 134.512 108.156 134.768L107.516 140.656C105.468 140.613 103.399 140.592 101.308 140.592C99.26 140.549 97.2547 140.528 95.292 140.528C93.628 140.485 92.348 140.507 91.452 140.592C90.556 140.677 89.916 140.891 89.532 141.232C89.1907 141.531 89.02 142.085 89.02 142.896C89.02 143.835 89.34 144.475 89.98 144.816C90.62 145.115 91.6867 145.456 93.18 145.84L101.436 147.824C104.081 148.507 106.044 149.531 107.324 150.896C108.604 152.219 109.244 154.224 109.244 156.912C109.244 159.557 108.753 161.584 107.772 162.992C106.791 164.4 105.233 165.381 103.1 165.936C100.967 166.448 98.2147 166.704 94.844 166.704C93.5213 166.704 91.5587 166.64 88.956 166.512C86.3533 166.384 83.4947 166.064 80.38 165.552L81.02 159.664C81.788 159.707 82.7693 159.749 83.964 159.792C85.1587 159.792 86.46 159.792 87.868 159.792C89.276 159.792 90.684 159.792 92.092 159.792C94.268 159.792 95.932 159.749 97.084 159.664C98.236 159.536 99.0253 159.28 99.452 158.896C99.8787 158.512 100.092 157.936 100.092 157.168C100.092 156.229 99.7293 155.589 99.004 155.248C98.2787 154.907 97.1267 154.544 95.548 154.16L87.548 152.176C85.5427 151.621 83.9853 150.917 82.876 150.064C81.7667 149.211 80.9773 148.165 80.508 146.928C80.0813 145.691 79.868 144.219 79.868 142.512C79.868 140.336 80.2947 138.608 81.148 137.328C82.044 136.005 83.4733 135.045 85.436 134.448C87.4413 133.851 90.0867 133.552 93.372 133.552ZM120.524 156.272C121.761 156.272 122.615 156.528 123.084 157.04C123.596 157.509 123.852 158.363 123.852 159.6V162.672C123.852 163.909 123.596 164.784 123.084 165.296C122.615 165.765 121.761 166 120.524 166H118.092C116.855 166 115.98 165.765 115.468 165.296C114.999 164.784 114.764 163.909 114.764 162.672V159.6C114.764 158.363 114.999 157.509 115.468 157.04C115.98 156.528 116.855 156.272 118.092 156.272H120.524ZM138.389 134.384L139.541 140.656L140.437 141.488V166H130.965V134.384H138.389ZM153.813 133.552L152.917 142.32H150.293C148.8 142.32 147.242 142.533 145.621 142.96C144 143.387 141.952 144.027 139.477 144.88L138.837 139.568C141.056 137.605 143.296 136.112 145.557 135.088C147.818 134.064 150.016 133.552 152.149 133.552H153.813ZM160.149 156.272C161.386 156.272 162.24 156.528 162.709 157.04C163.221 157.509 163.477 158.363 163.477 159.6V162.672C163.477 163.909 163.221 164.784 162.709 165.296C162.24 165.765 161.386 166 160.149 166H157.717C156.48 166 155.605 165.765 155.093 165.296C154.624 164.784 154.389 163.909 154.389 162.672V159.6C154.389 158.363 154.624 157.509 155.093 157.04C155.605 156.528 156.48 156.272 157.717 156.272H160.149ZM185.63 133.552C189.598 133.552 192.777 134.107 195.166 135.216C197.555 136.283 199.262 138.032 200.286 140.464C201.353 142.896 201.886 146.16 201.886 150.256C201.886 154.267 201.353 157.488 200.286 159.92C199.262 162.352 197.555 164.101 195.166 165.168C192.777 166.235 189.598 166.768 185.63 166.768C181.705 166.768 178.526 166.235 176.094 165.168C173.705 164.101 171.977 162.352 170.91 159.92C169.843 157.488 169.31 154.267 169.31 150.256C169.31 146.16 169.843 142.896 170.91 140.464C171.977 138.032 173.705 136.283 176.094 135.216C178.526 134.107 181.705 133.552 185.63 133.552ZM185.63 140.464C184.009 140.464 182.729 140.741 181.79 141.296C180.851 141.851 180.19 142.832 179.806 144.24C179.422 145.648 179.23 147.653 179.23 150.256C179.23 152.816 179.422 154.8 179.806 156.208C180.19 157.616 180.851 158.597 181.79 159.152C182.729 159.664 184.009 159.92 185.63 159.92C187.251 159.92 188.531 159.664 189.47 159.152C190.409 158.597 191.07 157.616 191.454 156.208C191.838 154.8 192.03 152.816 192.03 150.256C192.03 147.653 191.838 145.648 191.454 144.24C191.07 142.832 190.409 141.851 189.47 141.296C188.531 140.741 187.251 140.464 185.63 140.464Z" fill="#FED631"/>
</svg>
